<!--?xml version="1.0" encoding="utf-8"?-->
<!-- Generator: Adobe Illustrator 19.1.1, SVG Export Plug-In . SVG Version: 6.00 Build 0)  -->
<svg version="1.1" id="_x31_0" xmlns="http://www.w3.org/2000/svg" xmlns:xlink="http://www.w3.org/1999/xlink" x="0px" y="0px" viewBox="0 0 512 512" style="width: 128px; height: 128px; opacity: 1;" xml:space="preserve">
<style type="text/css">
	.st0{fill:#374149;}
</style>
<g>
	<path class="st0" d="M200.06,310.308c-0.496-0.183-0.989-0.32-1.485-0.492l-0.015-0.008c0,0,0,0,0,0.004
		c-0.051-0.019-0.102-0.031-0.149-0.05c-2.406,7.972-4.953,16.703-6.945,23.714c1.718,8.321,3.027,14.438,3.027,14.438
		s-4.469,33.961-2.066,40.77c-4.122,14.434-4.672,29.973-4.672,37.602l-3.508,7.91l-0.274,0.683l-3.367,7.426l-9.078,20.074
		l-2.336,5.227c-0.137,0.273-0.137,0.617-0.07,0.894c0.141,0.617,0.687,1.098,1.375,1.098l11.206-0.07l17.395-2.27l4.125-10.586
		c0.754-1.922,0.274-4.122-1.238-5.566l-3.782-3.782l4.813-8.871c1.098-2.058,3.094-3.641,5.43-4.191l2.887-0.754
		c1.789-0.414,3.164-1.996,3.301-3.851c0.277-2.886,0.687-7.289,0.965-11.203l3.437-12.102l-0.14-49.016
		c0,0,4.746-20.074,9.144-38.64C217.384,316.086,208.036,312.992,200.06,310.308z" style="fill: rgb(62, 19, 0);"></path>
	<path class="st0" d="M129.458,285.289c2.609,21.102,9.484,47.226,17.871,60.152c-5.91,20.282-2.13,34.926,1.789,46.817
		c-0.344,5.774-1.031,19.938-1.582,30.11c-0.07,1.308-0.343,2.546-0.894,3.781l-0.066,0.137l-3.574,7.91l-2.886,6.461
		l-10.863,24.062l-0.828,1.786c-0.137,0.277-0.203,0.621-0.203,0.894c0,1.172,0.961,2.199,2.199,2.199l10.035-0.07l17.394-2.27
		l0.274-0.618l5.09-13.133l-6.187-6.183l6.531-12.168l6.531-1.649l0.824-0.21l2.199-0.547c0,0,0.824-7.906,1.238-14.297
		c0.07-1.172,2.129-11.898,2.129-11.898s0.278-49.699,0.551-62.558c0,0,4.812-17.462,9.695-33.481
		c1.582-5.222,3.16-10.313,4.606-14.574c10.312,2.958,23.441,8.18,39.324,12.031c11.547,2.754,24.543,4.879,38.91,4.879
		c20.746,0,44.285-4.414,70.546-17.133c2.469-1.184,4.938-2.371,7.418-3.68c11.89,31.965,20.894,74.918,20.894,74.918
		l-12.855,60.156l-6.875,15.126l-10.106,21.378c-1.718,3.574,0.894,7.699,4.813,7.699l10.859,0.066
		c0.141-0.066,0.278-0.066,0.481-0.066h7.906c1.653,0,3.028-1.172,3.234-2.816l0.688-4.332c0-0.278,0.066-0.551,0.203-0.825
		l2.476-6.121l-4.949-4.742l-0.414-0.617c0,0,2.75-5.778,5.157-10.45l0.07-0.141l0.618-1.031l9.214-2.266
		c0,0,1.098-10.175,1.512-16.297l6.942-18.422l13.613-46.887l5.661-30.656l4.273-22.496l42.934,70.957
		c1.234,1.653,1.855,3.711,1.855,5.778l6.875,46.817l-1.446,5.98l-22.547,38.293c-1.308,2.199,0.274,4.95,2.817,4.95
		c0,0,0.07,0,0.137,0l24.477-1.102l1.855-3.574l2.75-5.226c1.031-2.058,0.758-4.535-0.824-6.254
		c-1.652-1.926-1.789-4.742-0.344-6.805l4.879-7.153l4.402-0.687c2.957-0.41,5.359-2.68,5.91-5.637
		c0.484-2.473,1.031-5.5,1.511-8.25l-0.617-7.356l-1.446-36.367c0,0-5.5-19.594-10.172-27.289l-11.824-34.309
		c-5.156-20.91-4.402-41.726-3.164-49.5c1.238-7.836,3.851-15.398,5.293-23.164c3.094-16.278,6.047-32.797-0.898-53.438
		c-1.246-3.82-2.726-7.738-4.707-11.875c6.402,3.164,12.004,7.618,16.157,14.184c7.164,11.32,10.082,24.847,12.133,37.906
		c2.781,17.702,4.32,36.168,0.629,53.535c-0.695,3.289,3.546,5.21,5.574,2.531c0.675-0.891,1.156-1.906,1.785-2.825
		c0.965-1.414,1.89-2.882,2.782-4.406c1.156-1.992,2.246-4.011,3.234-6.105c0.355-0.75,0.687-1.547,1.027-2.325
		c4.004-9.129,6.754-18.906,8.613-28.633c7.227-37.75-13.758-76.519-50.164-90.16c-8.793-3.297-18.238-4.668-27.637-4.422
		c-12.14-8.234-26.824-12.454-44.285-12.454c-5.156,0-10.52,0.344-16.09,1.102c-33.547,4.191-51.766,21.035-85.934,21.035
		c-1.511,0-3.094,0-4.742-0.07c-35.887-1.582-77.133-29.973-94.528-56.644c-29.972-46.063-66.754-60.016-95.488-62.36
		c-6.328-0.476-12.102-0.683-17.258-0.683c-19.11,0-29.629,2.816-30.387,2.816c-7.492-6.941-14.16-14.023-18.836-14.023
		c-0.687,0-1.374,0.137-1.992,0.484c-4.61,2.61,4.95,17.805,4.95,17.805c-7.977,6.734-7.734,8.821-13.164,8.821l-7.473,0.374
		c-8.867,0-10.715,10.606-1.297,11.223c1.718,0.07,1.582,0.066,2.957,0.066c5.226,0,7.426-0.688,7.426-0.688
		c-0.617,18.219-2.957,32.727-2.613,44.962c-5.637,20.762-11.207,35.613-10.586,44.824c0.618,7.836,4.676,21.313,16.91,21.313
		c2.203,0,4.746-0.481,7.562-1.446c2.133,1.926,4.058,2.547,5.637,2.547c0.758,0,1.515-0.211,2.062-0.414
		c1.566-0.465,5.844-3.41,8.336-9.172c0.141-0.324,0.266-0.668,0.39-1.011c0.297-0.794,0.688-1.438,0.898-2.333
		c3.438-14.918,7.633-22.961,11.344-26.602c4.117-4.058,9.645-4.242,14.086-12.726c0,0,0.008-0.011,0.008-0.019
		c0.418-0.793,0.828-1.618,1.219-2.57c0.542-1.246,1.074-2.606,1.578-4.164c22.11,20.137,35.633,44.93,33.641,66.641
		C105.122,215.715,97.419,258.129,129.458,285.289z M39.892,107.531c-0.676,0.442-1.434,0.602-2.184,0.602
		c-1.774,0-3.492-0.914-3.93-1.164l-0.766-0.438l-0.09-0.878c-0.074-0.715-0.313-4.328,1.973-5.817
		c2.281-1.484,5.496,0.211,6.117,0.566l0.77,0.434l0.086,0.883C41.942,102.429,42.181,106.047,39.892,107.531z" style="fill: rgb(62, 19, 0);"></path>
</g>
</svg>
